<?xml version="1.0" encoding="utf-8"?>
<!-- Generator: Adobe Illustrator 25.0.1, SVG Export Plug-In . SVG Version: 6.00 Build 0)  -->
<svg version="1.1" id="OBJECTS" xmlns="http://www.w3.org/2000/svg" xmlns:xlink="http://www.w3.org/1999/xlink" x="0px" y="0px"
	 viewBox="0 0 819 500" style="enable-background:new 0 0 819 500;" xml:space="preserve">
<style type="text/css">
	.st0{fill:url(#SVGID_1_);}
	.st1{fill:url(#SVGID_2_);}
	.st2{fill:url(#SVGID_3_);}
	.st3{fill:url(#SVGID_4_);}
	.st4{fill:#FFFFFF;}
	.st5{fill:url(#SVGID_5_);}
</style>
<g>
	<g>
		<linearGradient id="SVGID_1_" gradientUnits="userSpaceOnUse" x1="64.1802" y1="296.2624" x2="298.6056" y2="296.2624">
			<stop  offset="0" style="stop-color:#2EA1E5"/>
			<stop  offset="1" style="stop-color:#57C0F0"/>
		</linearGradient>
		<path class="st0" d="M264.31,290.74c-5,5.53-10.53,10.53-16.53,14.98h-0.01c-0.64-0.22-1.51-0.5-2.57-0.8
			c-2.42-0.71-5.9-1.59-10.12-2.27c-2.11-0.34-4.4-0.67-6.82-0.9c-1.21-0.12-2.46-0.23-3.74-0.29c-1.28-0.1-2.59-0.14-3.91-0.16
			c-1.32-0.05-2.68-0.03-4.04-0.01c-1.36,0-2.74,0.08-4.13,0.15c-0.71,0.05-1.38,0.05-2.11,0.14l-2.06,0.19
			c-1.38,0.11-2.81,0.33-4.21,0.49c-5.57,0.74-11.04,1.81-16.15,2.85c-5.11,1.03-9.86,2.04-13.96,2.76
			c-2.04,0.35-3.92,0.64-5.6,0.86c-1.67,0.2-3.13,0.37-4.34,0.42c-1.21,0.1-2.17,0.1-2.82,0.1c-0.65,0.01-0.99,0.01-0.99,0.01
			s0.34,0.03,0.99,0.05c0.65,0.04,1.61,0.11,2.82,0.1c1.23,0.03,2.7-0.04,4.4-0.12c1.69-0.11,3.59-0.27,5.68-0.49
			c4.15-0.45,8.97-1.14,14.13-1.84c5.16-0.68,10.65-1.38,16.14-1.73c1.38-0.07,2.7-0.18,4.1-0.2l2.07-0.05c0.63-0.03,1.33,0,2,0
			c1.33,0.01,2.67,0.01,3.99,0.1c1.31,0.05,2.6,0.12,3.88,0.25c1.27,0.1,2.52,0.22,3.73,0.38c1.23,0.12,2.41,0.3,3.57,0.49
			c2.3,0.34,4.47,0.79,6.44,1.23c3.19,0.72,5.9,1.53,7.98,2.23c-17.51,11.36-38.4,17.95-60.83,17.95
			c-30.23,0-57.64-11.97-77.79-31.41c1.38-0.46,2.91-0.94,4.6-1.46c2.64-0.76,5.65-1.58,8.97-2.33c3.34-0.75,6.96-1.48,10.83-2.07
			c1.93-0.31,3.92-0.61,5.98-0.83c1.02-0.12,2.06-0.25,3.09-0.37c1.05-0.1,2.11-0.18,3.17-0.27c2.14-0.2,4.32-0.31,6.51-0.39
			c2.21-0.15,4.44-0.15,6.7-0.16c1.12,0,2.29-0.04,3.36,0c1.16,0.03,2.31,0.05,3.47,0.1c2.33,0.03,4.56,0.22,6.86,0.33
			c4.6,0.31,9.22,0.74,13.75,1.25c4.53,0.5,9,1.08,13.33,1.66c4.33,0.59,8.51,1.16,12.47,1.69c3.98,0.53,7.75,0.99,11.23,1.38
			c1.74,0.18,3.42,0.34,5.01,0.49c1.59,0.12,3.1,0.23,4.52,0.34c2.85,0.14,5.32,0.26,7.37,0.22c2.04,0.03,3.65-0.1,4.74-0.16
			c1.09-0.05,1.68-0.1,1.68-0.1s-0.59,0-1.68-0.01c-1.09,0-2.7,0-4.73-0.16c-2.03-0.1-4.48-0.38-7.3-0.71
			c-1.4-0.19-2.89-0.41-4.47-0.63c-1.57-0.26-3.21-0.53-4.93-0.82c-3.43-0.63-7.15-1.33-11.06-2.12c-3.94-0.8-8.07-1.65-12.35-2.52
			c-4.29-0.87-8.73-1.76-13.26-2.57c-4.53-0.83-9.18-1.57-13.85-2.21c-2.34-0.26-4.74-0.61-7.04-0.82c-1.14-0.1-2.3-0.2-3.46-0.31
			c-1.23-0.14-2.36-0.14-3.53-0.22c-2.33-0.12-4.64-0.26-6.93-0.26c-2.3-0.04-4.56-0.07-6.78,0.03c-1.12,0.03-2.22,0.05-3.32,0.08
			c-1.09,0.05-2.17,0.12-3.24,0.18c-2.15,0.11-4.24,0.29-6.28,0.49c-4.07,0.38-7.91,0.93-11.45,1.5c-3.54,0.59-6.77,1.25-9.61,1.89
			c-2.85,0.68-5.32,1.32-7.35,1.92c-0.74,0.2-1.4,0.41-2.02,0.6c-5.76-6.66-10.74-14-14.82-21.9c5.11-1.17,12.02-1.95,21.39-1.95
			c40.05,0,99.04,14.38,127.39,21.3l1.16,0.29c11.49,2.81,21.87,4.22,30.86,4.22C263.11,290.75,263.71,290.75,264.31,290.74z"/>
		<linearGradient id="SVGID_2_" gradientUnits="userSpaceOnUse" x1="69.2865" y1="181.4497" x2="290.5365" y2="181.4497">
			<stop  offset="0" style="stop-color:#FEA12A"/>
			<stop  offset="1" style="stop-color:#FECD2A"/>
		</linearGradient>
		<path class="st1" d="M290.54,240.28c-1.47,6.58-3.54,12.94-6.13,19.04c-12.99-0.33-30.94-5.34-51.58-11.1
			c-0.24-0.06-0.5-0.13-0.76-0.21l44.78-1.37l-66.38-4.52c-4.79-1.25-9.65-2.47-14.57-3.6h-0.01
			c-20.5-35.16-29.44-119.74-29.44-119.74c-34.02,39.85-35.61,102.06-35.64,112.19c-1.31,0.05-2.6,0.11-3.86,0.19
			c0.4-71.27,33.21-109.91,35.27-112.27c-37.44,36.36-42.48,104.37-42.98,112.92c-22.05,2.4-36.3,8.99-45.35,15.62
			c-2.99-10.1-4.6-20.79-4.6-31.86c0-5.98,0.46-11.86,1.39-17.59l31.88-0.97l-31.35-2.14c2.34-12.59,6.81-24.44,12.99-35.17
			l47.44-1.44l-44.7-3.05c19.91-31.06,54.72-51.64,94.35-51.64c22.96,0,44.3,6.9,62.05,18.75c-9.39,3.01-9,13.78-8.1,19.43
			c-4.29-5.7-14.58-16.24-31.48-14.87c-28.71,2.34-23.67,35.76-23.67,35.76s2.02-4.36,6.16-9.41c-0.74-2.14-1.84-6.93-0.71-12.29
			c0,0,0.35,7.91,1.62,11.17c1.56-1.81,3.4-3.67,5.49-5.43c-0.37-2.53-1.35-8.55,0.3-13.15c0,0-0.63,7.51,0.88,12.18
			c3.64-2.84,8.02-5.31,13.17-6.65c14.27-3.74,23.09,1.88,26.25,4.49c-5.13-1.57-13.94-2.82-21.66,3.36
			c-14.19,11.36-7.49,34.54-7.49,34.54s1.24-8.32,6.49-17.26c-0.96-1.26-2.68-3.97-3.59-7.91c0,0,1.89,4.28,4.26,6.8
			c1.05-1.69,2.26-3.39,3.64-5.06c-1.16-1.3-3.43-4.07-4.54-6.74c0.23,0.26,3.39,3.79,5.39,5.72c1.3-1.47,2.71-2.9,4.29-4.25
			c2.74-2.34,5.56-3.7,8.11-4.49c-1.58,1.47-2.99,3.79-3.86,7.4c-4.46,18.54,10.38,35.49,10.38,35.49s-1.2-9.17-1.28-19.47
			c-2.06-1.47-5.88-4.33-8.01-6.74c0.33,0.23,4.88,3.45,8,5.12c0.02-8.4,0.85-17.26,3.7-22.36c1.13,1.31,3.04,3.67,5.39,7.08
			c-0.27,0.29-0.42,0.48-0.42,0.48c2.71,3.62,6.21,8.95,6.63,9.6c0.01,0.03,0.03,0.04,0.04,0.07c-0.43,0.42-0.69,0.69-0.69,0.69
			c3.16,5.16,6.56,11.41,6.96,12.14c0.01,0.02,0.02,0.05,0.04,0.06c-0.62,0.45-0.94,0.75-0.94,0.75c1.28,1.92,5.36,11.29,5.88,12.46
			c0,0.03,0,0.04,0.01,0.07c-0.57,0.25-0.91,0.41-0.91,0.41c1.48,3.43,4.29,12.08,4.68,13.29c0.02,0.05,0.03,0.11,0.05,0.16
			c-0.6,0.19-0.97,0.32-0.97,0.32c0.94,2.61,3.33,12.88,3.65,14.25c0,0.06,0.01,0.11,0.03,0.17l-0.88,0.13
			c0.71,2.98,2.14,13.71,2.36,15.33c0,0.09,0.01,0.15,0.01,0.24l-42.56,2.91L290.54,240.28z"/>
		<linearGradient id="SVGID_3_" gradientUnits="userSpaceOnUse" x1="238.2873" y1="181.2871" x2="293.2865" y2="181.2871">
			<stop  offset="0" style="stop-color:#FEA12A"/>
			<stop  offset="1" style="stop-color:#FECD2A"/>
		</linearGradient>
		<path class="st2" d="M293.29,215.57c0,6.2-0.5,12.28-1.48,18.21l-11.42,0.78c0.03-0.26,0.04-0.57,0.04-0.95
			c0-4.26-1.35-15.73-1.35-15.73l-0.89,0.12c-0.22-2.59-2.68-15.44-2.68-15.44c-0.31,0-0.64,0.01-0.98,0.04
			c-0.99-4.4-4.02-14.49-4.02-14.49c-0.33,0.03-0.65,0.07-0.97,0.11c-1.58-5.51-5.86-14.07-5.86-14.07
			c-0.3,0.05-0.57,0.11-0.86,0.18v-0.01c-0.91-2.29-2.86-5.54-4.59-8.24c-1.72-2.68-3.21-4.79-3.21-4.79
			c-0.26,0.05-0.52,0.12-0.78,0.2c-0.75-1.21-2.7-3.64-4.44-5.76c-1.76-2.12-3.32-3.94-3.32-3.94c-0.25,0.11-0.48,0.23-0.71,0.35
			c-2.33-2.22-4.81-4.33-7.46-6.3c5.64-2.52,10.66,0.64,14.72,5.51c0.41-1.55,0.99-3.89,1.1-5.05c0,0,0.29,2.97-0.35,5.99
			c1.13,1.47,2.19,3.05,3.15,4.67c0,0,1.13-5.91,0.95-8.35c0,0,0.54,4.24-0.3,9.46c0.8,1.42,1.53,2.82,2.18,4.17
			c0,0,0.93-5.23,0.84-7.73c0,0,0.48,4.56-0.3,8.89c2.12,4.55,3.3,8.14,3.3,8.14s1.43-22.25-7.87-30.76
			c-10.16-9.31-16.49,0.41-17.44,2.02c0.79-3.92,2.75-6.74,4.79-8.21c1.62-1.16,3.21-1.85,4.75-2.19c-1.05-1.25-2.86-3.28-4.29-4.38
			c0.65,0.42,3.49,2.29,5.61,4.18c5.37-0.52,9.93,2.94,12.12,5c0.1,0.08,0.18,0.16,0.26,0.25c0.08,0.07,0.15,0.15,0.22,0.22
			c0.12,0.14,0.25,0.26,0.38,0.39c0.05,0.05,0.11,0.11,0.15,0.16c0.16,0.15,0.26,0.27,0.33,0.34l0.03,0.04h0.01v0.01
			C281.63,158.67,293.29,185.77,293.29,215.57z"/>
		<linearGradient id="SVGID_4_" gradientUnits="userSpaceOnUse" x1="64.1801" y1="260.806" x2="298.6062" y2="260.806">
			<stop  offset="0" style="stop-color:#2EA1E5"/>
			<stop  offset="1" style="stop-color:#57C0F0"/>
		</linearGradient>
		<path class="st3" d="M65.66,266.75c0,0,11.46-29.75,74.1-29.07c62.64,0.68,129.25,36.22,157.16,26.92c0,0-3.63,29.96-63.66,15.32
			C193.46,270.21,91.07,244.96,65.66,266.75z"/>
		<path class="st4" d="M189.4,118.43c0,0-0.37-1.36-2.95-2.31c-2.58-0.95-7.26-3.8-7.8-4.64c-0.54-0.85-2.03-2.13-2.25-2.52
			c-0.22-0.38-0.59,0.83,0.35,2.04c0.94,1.21,2.02,2.5,2.43,3.31c0.4,0.82,2.18,3.56,5.06,4.3c2.88,0.74,4.28,1.17,4.23,1.54
			c-0.05,0.37-0.54,0.91-1.17,0.89c-0.63-0.02-2.34-0.39-2.44-0.01c-0.1,0.37,1.3,3.34,3.37,3.66c2.07,0.32,4.08-0.7,4.32-1
			c0.24-0.3-1.48-0.34-1.32-0.99c0.16-0.65,1.08-0.47,1.52-0.97c0.44-0.5,1.85-0.47,2.2-0.5c0.36-0.04-0.21-0.29-0.21-0.29
			s2.92-0.18,4.13-0.21c1.21-0.04,4.01-0.92,4.88-0.79c0.87,0.13,7.78-1.41,8-2.01c0.14-0.38-1.08,0.07-2.18,0.32
			c-1.1,0.25-4.71,0.67-6.15,0.33c-1.44-0.35-3.5-0.67-4.4-0.66c-0.9,0.01-3.42,0.95-4.43,1.19c-1.01,0.24-1.59,0.3-1.59,0.3
			s-0.75-0.69-1.36-0.9C191.02,118.31,189.4,118.43,189.4,118.43z"/>
		<path class="st4" d="M229.8,203.81c0,0-0.35-0.45-0.78-0.34c-0.43,0.11-0.73,0.26-0.99,0.24c-0.26-0.02-1.32-0.24-1.67-1.3
			c-0.35-1.06,0.13-2.71-0.76-3.08c-0.89-0.37-3.34-0.85-6.14-0.56c-2.8,0.28-3.04,0.22-2.15,0.87c0.89,0.65,2.32,0.85,2.8,0.85
			c0.48,0,1.52,0.11,1.93,0.46c0.41,0.35,0.65,1.15,1.28,2.3c0.63,1.15,1.41,2.41,1.37,2.8c-0.04,0.39-0.54,0.87-1.11,1.06
			c-0.56,0.2-1.04,0.3-0.93,0.5c0.11,0.2,0.72,0.46,0.98,0.65c0.26,0.2,0.61,0.52,0.76,0.3c0.15-0.22,0.5-0.91,1.15-1.11
			c0.65-0.2,1.02-0.11,2.08-0.72c1.06-0.61,1.73-1.59,1.86-1.74c0.13-0.15,0.57,0.11,0.78,0.37c0.22,0.26,0.52,0.96,1.13,1.41
			c0.61,0.46,0.8,1.26,1.26,1.39c0.46,0.13,0.28-1.85,0.26-2.82c-0.02-0.98-0.11-1.45-0.43-1.93c-0.33-0.48-0.69-0.59-0.98-0.39
			C231.23,203.21,230.15,203.79,229.8,203.81z"/>
	</g>
</g>
<linearGradient id="SVGID_5_" gradientUnits="userSpaceOnUse" x1="337.0713" y1="229.6145" x2="755.7637" y2="229.6145">
	<stop  offset="0" style="stop-color:#39A9E8"/>
	<stop  offset="1" style="stop-color:#51BBEE"/>
</linearGradient>
<path class="st5" d="M370.46,177.22h-11.34v34.4h-10.08v-34.4H337.7v-9.7h32.76V177.22z M401.21,180.12v31.5h-9.45v-2.96
	c-2.08,2.39-5.17,3.84-9.39,3.84c-8.25,0-15.06-7.25-15.06-16.63c0-9.39,6.8-16.63,15.06-16.63c4.22,0,7.31,1.45,9.39,3.84v-2.96
	H401.21z M391.76,195.87c0-4.73-3.15-7.69-7.5-7.69c-4.35,0-7.5,2.96-7.5,7.69c0,4.73,3.15,7.69,7.5,7.69
	C388.61,203.56,391.76,200.6,391.76,195.87z M442.03,195.87c0,9.39-6.8,16.63-15.06,16.63c-4.22,0-7.31-1.45-9.39-3.84v15.56h-9.45
	v-44.1h9.45v2.96c2.08-2.39,5.17-3.84,9.39-3.84C435.23,179.24,442.03,186.49,442.03,195.87z M432.58,195.87
	c0-4.73-3.15-7.69-7.5-7.69s-7.5,2.96-7.5,7.69c0,4.73,3.15,7.69,7.5,7.69S432.58,200.6,432.58,195.87z M466.28,179.49v10.71
	c-3.91-0.63-9.45,0.95-9.45,7.18v14.24h-9.45v-31.5h9.45v5.61C458.09,181.51,462.31,179.49,466.28,179.49z M468.17,195.87
	c0-9.39,7.43-16.63,16.7-16.63s16.7,7.25,16.7,16.63c0,9.39-7.43,16.63-16.7,16.63S468.17,205.26,468.17,195.87z M492.11,195.87
	c0-4.47-3.15-7.43-7.25-7.43c-4.09,0-7.25,2.96-7.25,7.43s3.15,7.43,7.25,7.43C488.96,203.31,492.11,200.35,492.11,195.87z
	 M540.81,195.87c0,9.39-6.8,16.63-15.06,16.63c-4.22,0-7.31-1.45-9.39-3.84v2.96h-9.45v-44.1h9.45v15.56
	c2.08-2.39,5.17-3.84,9.39-3.84C534.01,179.24,540.81,186.49,540.81,195.87z M531.36,195.87c0-4.73-3.15-7.69-7.5-7.69
	s-7.5,2.96-7.5,7.69c0,4.73,3.15,7.69,7.5,7.69S531.36,200.6,531.36,195.87z M578.49,180.12v31.5h-9.45v-2.96
	c-2.08,2.39-5.17,3.84-9.39,3.84c-8.25,0-15.06-7.25-15.06-16.63c0-9.39,6.8-16.63,15.06-16.63c4.22,0,7.31,1.45,9.39,3.84v-2.96
	H578.49z M569.04,195.87c0-4.73-3.15-7.69-7.5-7.69c-4.35,0-7.5,2.96-7.5,7.69c0,4.73,3.15,7.69,7.5,7.69
	C565.89,203.56,569.04,200.6,569.04,195.87z M615.66,192.28v19.34h-9.45v-17.96c0-3.91-2.46-5.73-5.48-5.73
	c-3.47,0-5.86,2.02-5.86,6.49v17.2h-9.45v-31.5h9.45v2.96c1.7-2.33,4.85-3.84,9.01-3.84C610.24,179.24,615.66,183.78,615.66,192.28z
	 M638.14,204.06c2.58,0,4.79-1.01,6.05-2.39l7.56,4.35c-3.09,4.28-7.75,6.49-13.74,6.49c-10.77,0-17.45-7.25-17.45-16.63
	c0-9.39,6.8-16.63,16.76-16.63c9.2,0,16,7.12,16,16.63c0,1.32-0.13,2.58-0.38,3.78h-22.37
	C631.78,202.93,634.68,204.06,638.14,204.06z M643.94,192.6c-1.01-3.65-3.84-4.98-6.68-4.98c-3.59,0-5.99,1.76-6.87,4.98H643.94z
	 M366.68,271.29H350.3l-2.21,6.93h-11.03l15-44.1h12.85l15,44.1h-11.03L366.68,271.29z M363.66,261.84l-5.17-16.19l-5.17,16.19
	H363.66z M402.28,246.09v10.71c-3.91-0.63-9.45,0.94-9.45,7.18v14.24h-9.45v-31.5h9.45v5.61
	C394.09,248.11,398.31,246.09,402.28,246.09z M425.59,246.09v10.71c-3.91-0.63-9.45,0.94-9.45,7.18v14.24h-9.45v-31.5h9.45v5.61
	C417.4,248.11,421.62,246.09,425.59,246.09z M461.37,246.72v31.5h-9.45v-2.96c-2.08,2.39-5.17,3.84-9.39,3.84
	c-8.25,0-15.06-7.25-15.06-16.63s6.8-16.63,15.06-16.63c4.22,0,7.31,1.45,9.39,3.84v-2.96H461.37z M451.92,262.47
	c0-4.73-3.15-7.69-7.5-7.69c-4.35,0-7.5,2.96-7.5,7.69s3.15,7.69,7.5,7.69C448.77,270.16,451.92,267.2,451.92,262.47z
	 M498.54,258.88v19.34h-9.45v-17.96c0-3.91-2.46-5.73-5.48-5.73c-3.47,0-5.86,2.02-5.86,6.49v17.2h-9.45v-31.5h9.45v2.96
	c1.7-2.33,4.85-3.84,9.01-3.84C493.12,245.84,498.54,250.38,498.54,258.88z M537.35,246.72v29.93c0,10.58-8.25,15.06-16.63,15.06
	c-6.55,0-12.03-2.46-14.93-7.62l8.06-4.66c1.2,2.21,3.02,3.97,7.18,3.97c4.41,0,7.12-2.27,7.12-6.74v-2.9
	c-2.08,2.58-5.1,4.1-9.2,4.1c-8.95,0-15.5-7.31-15.5-16s6.55-16,15.5-16c4.1,0,7.12,1.51,9.2,4.09v-3.21H537.35z M528.15,261.84
	c0-4.35-3.15-7.31-7.62-7.31c-4.47,0-7.62,2.96-7.62,7.31s3.15,7.31,7.62,7.31C525,269.15,528.15,266.19,528.15,261.84z
	 M560.28,270.66c2.58,0,4.79-1.01,6.05-2.39l7.56,4.35c-3.09,4.28-7.75,6.49-13.74,6.49c-10.77,0-17.45-7.25-17.45-16.63
	s6.8-16.63,16.76-16.63c9.2,0,16,7.12,16,16.63c0,1.32-0.13,2.58-0.38,3.78h-22.37C553.91,269.53,556.81,270.66,560.28,270.66z
	 M566.07,259.2c-1.01-3.65-3.84-4.98-6.68-4.98c-3.59,0-5.99,1.76-6.87,4.98H566.07z M628.07,258.88v19.34h-9.45V259.7
	c0-3.15-1.51-5.17-4.54-5.17c-3.15,0-4.92,2.21-4.92,5.92v17.77h-9.45V259.7c0-3.15-1.51-5.17-4.54-5.17
	c-3.15,0-4.91,2.21-4.91,5.92v17.77h-9.45v-31.5h9.45v2.9c1.45-2.14,4.22-3.78,8.44-3.78c3.72,0,6.49,1.51,8.25,4.16
	c1.76-2.52,4.66-4.16,9.14-4.16C623.34,245.84,628.07,251.01,628.07,258.88z M650.56,270.66c2.58,0,4.79-1.01,6.05-2.39l7.56,4.35
	c-3.09,4.28-7.75,6.49-13.74,6.49c-10.77,0-17.45-7.25-17.45-16.63s6.8-16.63,16.76-16.63c9.2,0,16,7.12,16,16.63
	c0,1.32-0.13,2.58-0.38,3.78H643C644.19,269.53,647.09,270.66,650.56,270.66z M656.35,259.2c-1.01-3.65-3.84-4.98-6.68-4.98
	c-3.59,0-5.99,1.76-6.87,4.98H656.35z M701.33,258.88v19.34h-9.45v-17.96c0-3.91-2.46-5.73-5.48-5.73c-3.47,0-5.86,2.02-5.86,6.49
	v17.2h-9.45v-31.5h9.45v2.96c1.7-2.33,4.85-3.84,9.01-3.84C695.92,245.84,701.33,250.38,701.33,258.88z M719.79,255.79v11.15
	c0,2.71,2.33,2.96,6.49,2.71v8.57c-12.35,1.26-15.94-2.46-15.94-11.28v-11.15h-5.04v-9.07h5.04v-5.99l9.45-2.83v8.82h6.49v9.07
	H719.79z M755.76,268.77c0,7.25-6.3,10.33-13.1,10.33c-6.3,0-11.09-2.39-13.55-7.5l8.19-4.66c0.82,2.39,2.58,3.72,5.36,3.72
	c2.27,0,3.4-0.69,3.4-1.95c0-3.46-15.5-1.64-15.5-12.54c0-6.87,5.8-10.33,12.35-10.33c5.1,0,9.64,2.27,12.29,6.74l-8.06,4.35
	c-0.88-1.64-2.14-2.77-4.22-2.77c-1.64,0-2.65,0.63-2.65,1.76C740.27,259.51,755.76,257.12,755.76,268.77z"/>
</svg>
